<?xml version="1.0" encoding="UTF-8" standalone="no"?>
<svg width="456" height="456" viewBox="0 0 456 456" version="1.1" xmlns="http://www.w3.org/2000/svg">
    <!-- Top circle (orb) -->
    <circle cx="228" cy="82" r="26" fill="#f59e0b"/>

    <!-- Wings left -->
    <path d="M228,118 Q168,90 115,102 Q168,128 228,138Z" fill="#f59e0b" opacity="0.95"/>
    <!-- Wings right -->
    <path d="M228,118 Q288,90 341,102 Q288,128 228,138Z" fill="#f59e0b" opacity="0.95"/>

    <!-- Staff -->
    <line x1="228" y1="68" x2="228" y2="390" stroke="#f59e0b" stroke-width="18" stroke-linecap="round"/>

    <!-- Snake 1 (left-right-left) -->
    <path d="M228,138 Q173,172 228,210 Q283,248 228,286 Q173,324 228,362 Q255,376 228,390"
          fill="none" stroke="#34d399" stroke-width="14" stroke-linecap="round"/>
    <!-- Snake 2 (right-left-right) -->
    <path d="M228,138 Q283,172 228,210 Q173,248 228,286 Q283,324 228,362 Q201,376 228,390"
          fill="none" stroke="#34d399" stroke-width="14" stroke-linecap="round"/>

    <!-- Snake eyes -->
    <circle cx="209" cy="370" r="5" fill="#0f4c3a"/>
    <circle cx="247" cy="370" r="5" fill="#0f4c3a"/>
</svg>
